<svg xmlns="http://www.w3.org/2000/svg" xmlns:xlink="http://www.w3.org/1999/xlink" viewBox="0 0 585.88 209.28"><defs><style>.cls-1{fill:url(#未命名的渐变_44);}.cls-2{fill:url(#未命名的渐变_44-2);}.cls-3{fill:#f3f5ff;}</style><linearGradient id="未命名的渐变_44" y1="102.16" x2="455.52" y2="102.16" gradientUnits="userSpaceOnUse"><stop offset="0" stop-color="#b0b8ff"/><stop offset="1" stop-color="#fad4d2"/></linearGradient><linearGradient id="未命名的渐变_44-2" x1="246.83" y1="132.27" x2="585.88" y2="132.27" xlink:href="#未命名的渐变_44"/></defs><title>资源 9</title><g id="图层_2" data-name="图层 2"><g id="图层_1-2" data-name="图层 1"><polygon class="cls-1" points="0 193.48 202.69 0 455.52 204.32 0 193.48"/><polygon class="cls-2" points="246.83 199.35 401.43 55.26 585.88 209.28 246.83 199.35"/><path class="cls-3" d="M147.63,52.79,134,76.33a4.13,4.13,0,0,0,5,6l52-19.44a4.15,4.15,0,0,1,5,1.81l1.73,3a4.14,4.14,0,0,0,5.47,1.62L228,56.63a4.12,4.12,0,0,1,4.8.75l23.12,23a4.14,4.14,0,0,0,7-2.43l1.4-11.44a4.14,4.14,0,0,1,4.27-3.63h0a4.14,4.14,0,0,0,2.77-7.35L205.52,2.28a4.14,4.14,0,0,0-5.46.23L148.35,51.87A4.31,4.31,0,0,0,147.63,52.79Z"/><path class="cls-3" d="M353.24,98.46l-11.66,19.77a3.5,3.5,0,0,0,4.3,5l44.51-16.33c1.62-.59,31.59-5.22,31.59-5.22a3.6,3.6,0,0,1,4.11.63l19.78,19.31a3.56,3.56,0,0,0,6-2l1.2-9.62a3.53,3.53,0,0,1,3.65-3h0a3.47,3.47,0,0,0,2.37-6.17L402.76,56a3.6,3.6,0,0,0-4.67.19L353.86,97.68A3.33,3.33,0,0,0,353.24,98.46Z"/></g></g></svg>